<svg xmlns="http://www.w3.org/2000/svg" width="32" height="30" viewBox="0 0 32 30" fill="none"><path d="M31.8459 14.4802C31.7307 14.3765 31.5899 14.3312 31.43 14.3312H31.238L30.3486 12.3936L27.2133 5.64137V2.93917L27.8468 2.92621C28.1475 2.92621 28.3459 2.65405 28.3587 2.36244C28.3715 2.02548 28.1411 1.74684 27.7892 1.74684H18.1977C17.8458 0.398978 16.5085 -0.313831 15.2415 0.133295C14.5761 0.373058 14.0002 0.969225 13.8083 1.74684H4.24236C3.87764 1.74684 3.62809 1.99308 3.64089 2.36244C3.65368 2.64109 3.84565 2.91325 4.14638 2.91973L4.77984 2.93269V5.62193L0.812707 14.1692L0.748727 14.3052C0.748727 14.3052 0.646346 14.3312 0.595157 14.3247C0.320018 14.2988 -0.00630596 14.4867 9.26329e-05 14.8107C0.025687 16.1715 0.563169 17.4999 1.52936 18.446C3.72408 20.5974 7.33928 20.4419 9.30365 18.0831C10.0587 17.1759 10.4042 16.1132 10.5002 14.9403C10.513 14.7459 10.4426 14.558 10.3274 14.4543C10.1867 14.3312 10.0267 14.3052 9.82193 14.3376L9.41242 13.411L7.00655 8.09732C6.63544 7.27435 6.20033 6.47082 5.90599 5.62193C5.79082 4.74063 5.93159 3.83342 5.8676 2.93269H13.8211C14.0258 3.7427 14.6401 4.35183 15.4463 4.55919V28.866H10.1099C9.80913 28.8725 9.63638 29.1965 9.63638 29.4362C9.63638 29.676 9.80913 30 10.1099 30H21.9089C22.2288 30 22.3824 29.6306 22.3696 29.4038C22.3568 29.1706 22.1776 28.8725 21.8897 28.8725H16.5533V4.55919C17.3723 4.34535 17.9673 3.71678 18.1785 2.92621H26.1192V5.60249L22.5615 13.4823L22.1904 14.3312C21.8769 14.2534 21.5378 14.4413 21.5058 14.7783C21.4738 15.1282 21.5378 15.4717 21.6145 15.8216C21.7873 16.6575 22.1392 17.4286 22.6895 18.0831C24.6411 20.4354 28.2627 20.5909 30.4446 18.459C31.398 17.5258 31.9291 16.2428 31.9995 14.9079C32.0059 14.7264 31.9547 14.5709 31.8459 14.4608V14.4802ZM5.20855 18.8413C3.21859 18.8154 1.51016 17.474 1.17104 15.4652H9.34204C9.00291 17.5129 7.2433 18.8672 5.20855 18.8413ZM8.6254 14.3376H1.95166L5.32372 7.04754L8.6254 14.3376ZM16.822 3.14653C16.3869 3.60014 15.6511 3.6131 15.2032 3.16597C14.7553 2.71237 14.7361 1.98012 15.1904 1.51355C15.6511 1.04051 16.3613 1.04051 16.8156 1.51355C17.2635 1.97364 17.2571 2.68645 16.8156 3.14653H16.822ZM26.6758 7.07346L28.9217 11.927L30.0351 14.3376H23.387L26.6694 7.07346H26.6758ZM25.1466 18.5432C23.8605 18.0378 22.8815 16.8584 22.6575 15.4587H30.8285C30.3742 18.122 27.5716 19.4958 25.1466 18.5432Z" fill="#1F99CE"></path></svg>